<svg width="576" height="99" viewBox="0 0 576 99" fill="none" xmlns="http://www.w3.org/2000/svg">
<path d="M352 107C350.943 89.9396 342.179 73.8725 327.513 62.1123C312.848 50.352 293.401 43.7957 273.183 43.7954C270.784 43.7954 268.416 43.9011 266.071 44.0781C256.851 30.6754 243.631 19.5512 227.731 11.8165C211.831 4.08181 193.808 0.00734017 175.461 9.90822e-06C157.114 -0.00732036 139.086 4.05276 123.178 11.7747C107.269 19.4967 94.0363 30.6103 84.8014 44.0057C82.8237 43.8802 80.8327 43.7954 78.817 43.7954C58.5988 43.7957 39.1517 50.3521 24.4866 62.1123C9.82144 73.8725 1.05667 89.9396 0 107" fill="#B4CEE0"/>
<path d="M579 110C578.144 96.1285 571.048 83.0645 559.174 73.5025C547.3 63.9404 531.555 58.6096 515.185 58.6093C513.243 58.6093 511.325 58.6953 509.427 58.8392C501.962 47.9417 491.258 38.8968 478.385 32.6078C465.511 26.3189 450.918 23.006 436.064 23C421.209 22.994 406.612 26.2952 393.732 32.5739C380.851 38.8525 370.137 47.8888 362.66 58.7803C361.059 58.6783 359.447 58.6093 357.815 58.6093C341.445 58.6096 325.7 63.9405 313.826 73.5025C301.952 83.0645 294.856 96.1285 294 110" fill="#B4CEE0"/>
</svg>
