<svg width="36" height="36" viewBox="0 0 36 36" fill="none" xmlns="http://www.w3.org/2000/svg">
<path fill-rule="evenodd" clip-rule="evenodd" d="M18 7.5C17.6022 7.5 17.2206 7.65804 16.9393 7.93934C16.658 8.22064 16.5 8.60218 16.5 9V12C16.5 12.8284 15.8284 13.5 15 13.5C14.1716 13.5 13.5 12.8284 13.5 12V9C13.5 7.80653 13.9741 6.66193 14.818 5.81802C15.6619 4.97411 16.8065 4.5 18 4.5H28.5C29.6935 4.5 30.8381 4.97411 31.682 5.81802C32.5259 6.66193 33 7.80653 33 9V27C33 28.1935 32.5259 29.3381 31.682 30.182C30.8381 31.0259 29.6935 31.5 28.5 31.5H18C16.8065 31.5 15.6619 31.0259 14.818 30.182C13.9741 29.3381 13.5 28.1935 13.5 27V24C13.5 23.1716 14.1716 22.5 15 22.5C15.8284 22.5 16.5 23.1716 16.5 24V27C16.5 27.3978 16.658 27.7794 16.9393 28.0607C17.2206 28.342 17.6022 28.5 18 28.5H28.5C28.8978 28.5 29.2794 28.342 29.5607 28.0607C29.842 27.7794 30 27.3978 30 27V9C30 8.60218 29.842 8.22064 29.5607 7.93934C29.2794 7.65804 28.8978 7.5 28.5 7.5H18ZM10.0607 12.4393C10.6464 13.0251 10.6464 13.9749 10.0607 14.5607L8.12132 16.5H22.5C23.3284 16.5 24 17.1716 24 18C24 18.8284 23.3284 19.5 22.5 19.5H8.12132L10.0607 21.4393C10.6464 22.0251 10.6464 22.9749 10.0607 23.5607C9.47487 24.1464 8.52513 24.1464 7.93934 23.5607L3.43934 19.0607C2.85355 18.4749 2.85355 17.5251 3.43934 16.9393L7.93934 12.4393C8.52513 11.8536 9.47487 11.8536 10.0607 12.4393Z" fill="#D03A3D"/>
</svg>
