<svg width="32" height="32" viewBox="0 0 32 32" fill="none" xmlns="http://www.w3.org/2000/svg">
    <path d="M8.06666 5.52L7.54666 5C7.2986 4.75346 6.96307 4.61508 6.61333 4.61508C6.26359 4.61508 5.92806 4.75346 5.68 5L5.66666 5.01334C5.54314 5.13537 5.44507 5.2807 5.37814 5.44092C5.31121 5.60113 5.27674 5.77304 5.27674 5.94667C5.27674 6.1203 5.31121 6.29221 5.37814 6.45242C5.44507 6.61264 5.54314 6.75797 5.66666 6.88L6.18666 7.4C6.70666 7.92 7.53333 7.92 8.05333 7.4L8.06666 7.38667C8.19018 7.26464 8.28825 7.11931 8.35518 6.95909C8.42212 6.79888 8.45658 6.62697 8.45658 6.45334C8.45658 6.2797 8.42212 6.1078 8.35518 5.94758C8.28825 5.78737 8.19018 5.64203 8.06666 5.52ZM4.01333 14H2.65333C1.91999 14 1.33333 14.5867 1.33333 15.32V15.3333C1.33333 16.0667 1.91999 16.6533 2.65333 16.6533H3.99999C4.74666 16.6667 5.33333 16.08 5.33333 15.3467V15.3333C5.33333 14.5867 4.74666 14 4.01333 14ZM16.0133 0.733337H16C15.2533 0.733337 14.6667 1.32 14.6667 2.05334V3.33334C14.6667 4.06667 15.2533 4.65334 15.9867 4.65334H16C16.7467 4.66667 17.3333 4.08 17.3333 3.34667V2.05334C17.3333 1.32 16.7467 0.733337 16.0133 0.733337ZM26.3333 5.01334C25.8133 4.49334 24.9733 4.49334 24.4533 5L23.9333 5.52C23.8098 5.64203 23.7117 5.78737 23.6448 5.94758C23.5779 6.1078 23.5434 6.2797 23.5434 6.45334C23.5434 6.62697 23.5779 6.79888 23.6448 6.95909C23.7117 7.11931 23.8098 7.26464 23.9333 7.38667L23.9467 7.4C24.4667 7.92 25.3067 7.92 25.8133 7.4L26.3333 6.88C26.4568 6.75797 26.5549 6.61264 26.6218 6.45242C26.6888 6.29221 26.7232 6.1203 26.7232 5.94667C26.7232 5.77304 26.6888 5.60113 26.6218 5.44092C26.5549 5.2807 26.4568 5.13537 26.3333 5.01334ZM23.92 25.1467L24.44 25.6667C24.6893 25.916 25.0274 26.056 25.38 26.056C25.7326 26.056 26.0707 25.916 26.32 25.6667C26.5693 25.4174 26.7094 25.0792 26.7094 24.7267C26.7094 24.3741 26.5693 24.036 26.32 23.7867L25.8 23.2667C25.5519 23.0201 25.2164 22.8818 24.8667 22.8818C24.5169 22.8818 24.1814 23.0201 23.9333 23.2667C23.4 23.8 23.4 24.6267 23.92 25.1467ZM26.6667 15.32V15.3333C26.6667 16.0667 27.2533 16.6533 27.9867 16.6533H29.3333C30.0667 16.6533 30.6533 16.0667 30.6533 15.3333V15.32C30.6533 14.5867 30.0667 14 29.3333 14H27.9867C27.2533 14 26.6667 14.5867 26.6667 15.32ZM16 7.33334C11.5867 7.33334 8 10.92 8 15.3333C8 19.7467 11.5867 23.3333 16 23.3333C20.4133 23.3333 24 19.7467 24 15.3333C24 10.92 20.4133 7.33334 16 7.33334ZM15.9867 29.9333H16C16.7333 29.9333 17.32 29.3467 17.32 28.6133V27.3333C17.32 26.6 16.7333 26.0133 16 26.0133H15.9867C15.2533 26.0133 14.6667 26.6 14.6667 27.3333V28.6133C14.6667 29.3467 15.2533 29.9333 15.9867 29.9333ZM5.66666 25.6533C6.18666 26.1733 7.02666 26.1733 7.54666 25.6533L8.06666 25.1333C8.31321 24.8853 8.45159 24.5497 8.45159 24.2C8.45159 23.8503 8.31321 23.5147 8.06666 23.2667L8.05333 23.2533C7.92998 23.1297 7.78346 23.0317 7.62216 22.9648C7.46086 22.8979 7.28795 22.8634 7.11333 22.8634C6.9387 22.8634 6.76579 22.8979 6.6045 22.9648C6.4432 23.0317 6.29668 23.1297 6.17333 23.2533L5.65333 23.7733C5.14666 24.3067 5.14666 25.1333 5.66666 25.6533Z" fill="#9E6D00"/>
</svg>
