<svg width="354" height="81" viewBox="0 0 354 81" fill="none" xmlns="http://www.w3.org/2000/svg">
<g clip-path="url(#clip0_168_140)">
<mask id="mask0_168_140" style="mask-type:luminance" maskUnits="userSpaceOnUse" x="0" y="-23" width="150" height="90">
<path d="M150 66.8484H89.0625L78.5449 57.6986C77.5629 56.8459 76.3035 56.3762 75 56.3762C73.6965 56.3762 72.4371 56.8459 71.4551 57.6986L60.9375 66.8484H0V-22.3187H150V66.8484Z" fill="white"/>
</mask>
<g mask="url(#mask0_168_140)">
<g clip-path="url(#clip1_168_140)">
<path d="M75 87.246C88.5914 87.246 99.6094 76.2872 99.6094 62.7687C99.6094 49.2503 88.5914 38.2915 75 38.2915C61.4086 38.2915 50.3906 49.2503 50.3906 62.7687C50.3906 76.2872 61.4086 87.246 75 87.246Z" fill="url(#paint0_linear_168_140)" stroke="#F8AF18" stroke-width="0.1875" stroke-miterlimit="10"/>
<path d="M101.993 35.9208L112.289 25.6802M37.7112 99.8574L48.007 89.6169M113.2 62.7688L127.702 62.7688M22.2984 62.7688L36.8411 62.7688M75.0414 24.7736V10.3502M75.0414 115.229V100.764M48.007 35.9208L37.7112 25.6802M112.289 99.8574L101.993 89.6169" stroke="#FBBF24" stroke-width="5" stroke-miterlimit="10" stroke-linecap="round"/>
</g>
</g>
<path d="M37.5 74.4246H63.2812L75 63.9343L86.7188 74.4246H112.5" stroke="#EACD9B" stroke-width="2" stroke-linecap="round" stroke-linejoin="round"/>
</g>
<path d="M180.976 67.768C177.307 67.768 174.043 67 171.184 65.464C168.368 63.928 166.149 61.816 164.528 59.128C162.907 56.44 162.096 53.3893 162.096 49.976V19.32H170.8V49.528C170.8 51.4907 171.227 53.2613 172.08 54.84C172.976 56.4187 174.192 57.656 175.728 58.552C177.264 59.4053 179.013 59.832 180.976 59.832C182.981 59.832 184.731 59.4053 186.224 58.552C187.76 57.656 188.955 56.4187 189.808 54.84C190.704 53.2613 191.152 51.4907 191.152 49.528V19.32H199.856V49.976C199.856 53.3893 199.045 56.44 197.424 59.128C195.803 61.816 193.563 63.928 190.704 65.464C187.888 67 184.645 67.768 180.976 67.768ZM222.562 67L205.921 19.32H215.393L228.449 58.808H226.594L239.65 19.32H249.122L232.545 67H222.562ZM255.026 67V32.184H263.41V67H255.026ZM255.026 28.28V19.32H263.41V28.28H255.026ZM285.679 67.768C281.967 67.768 278.725 66.8933 275.951 65.144C273.221 63.352 271.343 60.9413 270.319 57.912L276.591 54.904C277.487 56.8667 278.725 58.4027 280.303 59.512C281.925 60.6213 283.717 61.176 285.679 61.176C287.215 61.176 288.431 60.8347 289.327 60.152C290.223 59.4693 290.671 58.5733 290.671 57.464C290.671 56.7813 290.479 56.2267 290.095 55.8C289.754 55.3307 289.263 54.9467 288.623 54.648C288.026 54.3067 287.365 54.0293 286.639 53.816L280.943 52.216C277.999 51.3627 275.759 50.0613 274.223 48.312C272.73 46.5627 271.983 44.4933 271.983 42.104C271.983 39.9707 272.517 38.1147 273.583 36.536C274.693 34.9147 276.207 33.656 278.127 32.76C280.09 31.864 282.33 31.416 284.847 31.416C288.133 31.416 291.034 32.2053 293.551 33.784C296.069 35.3627 297.861 37.5813 298.927 40.44L292.527 43.448C291.93 41.8693 290.927 40.6107 289.519 39.672C288.111 38.7333 286.533 38.264 284.783 38.264C283.375 38.264 282.266 38.584 281.455 39.224C280.645 39.864 280.239 40.696 280.239 41.72C280.239 42.36 280.41 42.9147 280.751 43.384C281.093 43.8533 281.562 44.2373 282.159 44.536C282.799 44.8347 283.525 45.112 284.335 45.368L289.903 47.032C292.762 47.8853 294.959 49.1653 296.495 50.872C298.074 52.5787 298.863 54.6693 298.863 57.144C298.863 59.2347 298.309 61.0907 297.199 62.712C296.09 64.2907 294.554 65.528 292.591 66.424C290.629 67.32 288.325 67.768 285.679 67.768ZM323.098 67.768C319.514 67.768 316.378 66.9573 313.69 65.336C311.002 63.7147 308.912 61.5173 307.418 58.744C305.925 55.9707 305.178 52.8987 305.178 49.528C305.178 46.0293 305.925 42.936 307.418 40.248C308.954 37.5173 311.024 35.3627 313.626 33.784C316.272 32.2053 319.216 31.416 322.458 31.416C325.189 31.416 327.578 31.864 329.626 32.76C331.717 33.656 333.488 34.8933 334.938 36.472C336.389 38.0507 337.498 39.864 338.266 41.912C339.034 43.9173 339.418 46.0933 339.418 48.44C339.418 49.0373 339.376 49.656 339.29 50.296C339.248 50.936 339.141 51.4907 338.97 51.96H312.09V45.56H334.234L330.266 48.568C330.65 46.6053 330.544 44.856 329.946 43.32C329.392 41.784 328.453 40.568 327.13 39.672C325.85 38.776 324.293 38.328 322.458 38.328C320.709 38.328 319.152 38.776 317.786 39.672C316.421 40.5253 315.376 41.8053 314.65 43.512C313.968 45.176 313.712 47.2027 313.882 49.592C313.712 51.7253 313.989 53.624 314.714 55.288C315.482 56.9093 316.592 58.168 318.042 59.064C319.536 59.96 321.242 60.408 323.162 60.408C325.082 60.408 326.704 60.0027 328.026 59.192C329.392 58.3813 330.458 57.2933 331.226 55.928L338.01 59.256C337.328 60.92 336.261 62.392 334.81 63.672C333.36 64.952 331.632 65.9547 329.626 66.68C327.664 67.4053 325.488 67.768 323.098 67.768Z" fill="#2D546E"/>
<defs>
<linearGradient id="paint0_linear_168_140" x1="62.6953" y1="41.5551" x2="87.1064" y2="84.0961" gradientUnits="userSpaceOnUse">
<stop stop-color="#FBBF24"/>
<stop offset="0.5" stop-color="#FBBF24"/>
<stop offset="1" stop-color="#F59E0B"/>
</linearGradient>
<clipPath id="clip0_168_140">
<rect width="150" height="78.5235" fill="white" transform="translate(0 1.23828)"/>
</clipPath>
<clipPath id="clip1_168_140">
<rect width="112.5" height="111.896" fill="white" transform="translate(18.75 6.8208)"/>
</clipPath>
</defs>
</svg>
