<svg width="158" height="158" viewBox="0 0 158 158" fill="none" xmlns="http://www.w3.org/2000/svg">
<path d="M78.9167 46C97.0867 46 111.833 60.7467 111.833 78.9167C111.833 97.0867 97.0867 111.833 78.9167 111.833C60.7467 111.833 46 97.0867 46 78.9167C46 60.7467 60.7467 46 78.9167 46Z" fill="#F55023" stroke="#F55023" stroke-width="10" stroke-linecap="round" stroke-linejoin="round"/>
<path d="M79 29C106.6 29 129 51.4 129 79C129 106.6 106.6 129 79 129C51.4 129 29 106.6 29 79C29 51.4 51.4 29 79 29Z" stroke="#F55023" stroke-width="10" stroke-linecap="round" stroke-linejoin="round"/>
<path d="M79 11C116.536 11 147 41.464 147 79C147 116.536 116.536 147 79 147C41.464 147 11 116.536 11 79C11 41.464 41.464 11 79 11Z" stroke="#F55023" stroke-width="10" stroke-linecap="round" stroke-linejoin="round" stroke-dasharray="20 20"/>
</svg>
