<svg width="158" height="158" viewBox="0 0 158 158" fill="none" xmlns="http://www.w3.org/2000/svg">
<path d="M78.8334 45.9167C97.0034 45.9167 111.75 60.6634 111.75 78.8334C111.75 97.0034 97.0034 111.75 78.8334 111.75C60.6634 111.75 45.9167 97.0034 45.9167 78.8334C45.9167 60.6634 60.6634 45.9167 78.8334 45.9167Z" fill="#FFD100" stroke="#FFD100" stroke-width="10" stroke-linecap="round" stroke-linejoin="round"/>
<path d="M78.8333 138.083V144.667V138.083ZM138.083 78.8333H144.667H138.083ZM78.8333 19.5833V13V19.5833ZM19.5833 78.8333H13H19.5833Z" fill="#FFD100"/>
<path d="M78.8333 138.083V144.667M138.083 78.8333H144.667M78.8333 19.5833V13M19.5833 78.8333H13" stroke="#FFD100" stroke-width="10" stroke-linecap="round" stroke-linejoin="round"/>
<path d="M121.625 121.625L124.917 124.917L121.625 121.625ZM121.625 36.0417L124.917 32.75L121.625 36.0417ZM36.0417 36.0417L32.75 32.75L36.0417 36.0417ZM36.0417 121.625L32.75 124.917L36.0417 121.625Z" fill="#FFD100"/>
<path d="M121.625 121.625L124.917 124.917M121.625 36.0417L124.917 32.75M36.0417 36.0417L32.75 32.75M36.0417 121.625L32.75 124.917" stroke="#FFD100" stroke-width="10" stroke-linecap="round" stroke-linejoin="round"/>
</svg>
