<svg width="90" height="144" viewBox="0 0 90 144" fill="none" xmlns="http://www.w3.org/2000/svg">
<g clip-path="url(#clip0_171_509)">
<path d="M78.4784 40.4341L40.7868 49.0441L24.8619 19.0628L57.0912 6.50305L78.4784 40.4341Z" fill="#DC8848"/>
<path d="M51.6379 36.0405C51.6379 36.0405 50.6282 52.6696 52.6476 57.7088C54.6669 62.7479 45.0751 72.3223 45.0751 72.3223L29.9301 52.6696C29.9301 52.6696 40.0267 42.5914 37.5025 31.5053L51.6379 36.0405Z" fill="#FBDAC9"/>
<path d="M80.9183 75.8497V102.557L83.1901 151.185C83.1901 151.185 97.8302 178.396 83.6949 176.38C69.5596 174.365 74.3555 150.429 74.3555 150.429L69.5596 102.809L69.812 73.834L80.9183 75.8497Z" fill="#FBDAC9"/>
<path d="M46.5898 40.5757C37.6678 40.5757 30.4351 33.3562 30.4351 24.4505C30.4351 15.5448 37.6678 8.32529 46.5898 8.32529C55.5117 8.32529 62.7444 15.5448 62.7444 24.4505C62.7444 33.3562 55.5117 40.5757 46.5898 40.5757Z" fill="#FBDAC9"/>
<path d="M44.5704 56.7009L32.0342 50.2027L26.3965 54.6853C26.3965 54.6853 12.766 54.1814 7.71767 60.2283C2.66931 66.2753 -0.107231 81.6446 -0.107231 81.6446C-0.107231 81.6446 16.5523 78.1173 14.5329 92.2268L17.5619 84.1642L20.3385 90.967L54.1623 102.557L69.3073 76.8574C69.3073 76.8574 79.4039 73.834 82.9377 80.8888C82.9377 80.8888 82.1805 55.4412 72.3363 54.6853C65.7158 54.177 60.7251 54.1814 60.7251 54.1814L55.172 53.1736L51.6159 51.9138L44.5704 56.7009Z" fill="#9B9B9B"/>
<path d="M16.8802 55.0411C16.8802 55.0411 24.6031 76.5797 15.6552 86.2929L16.8802 111.512C16.8802 111.512 16.8802 142.244 16.8802 155.415C16.8802 155.415 20.2134 164.195 76.4596 151.902L71.1865 108L69.3066 70.8105L64.7631 53.1736L54.6665 52.1657C54.6665 52.1657 60.7245 74.8418 49.6181 78.3692C38.5118 81.8966 27.6768 52.7317 27.6768 52.7317L16.8802 55.0411Z" fill="#2F2E41"/>
<path d="M16.5522 75.8497V102.557L18.824 151.185C18.824 151.185 33.4641 178.396 19.3288 176.38C5.19349 174.365 9.98941 150.429 9.98941 150.429L6.45559 102.557L5.4459 73.8339L16.5522 75.8497Z" fill="#FBDAC9"/>
<path d="M-0.107317 81.6447C-0.107317 81.6447 1.68722 55.7659 16.6921 55.8555V85.7831C16.6921 85.7831 5.44584 79.1251 -0.107317 81.6447Z" fill="#9B9B9B"/>
<path d="M55.7109 1.88056C55.7109 1.88056 64.0605 3.44827 65.9914 13.8428C66.2934 15.5958 66.3485 17.3822 66.1549 19.1504C65.9621 21.1512 66.2417 25.3772 70.5942 30.3533C73.4341 33.5807 76.0804 36.973 78.519 40.5124L69.7944 42.8308L65.8963 28.402C64.0064 21.4066 61.0949 14.7271 57.2555 8.5783L57.1754 8.44997C57.1754 8.44997 54.2777 16.1785 46.5109 17.238L48.9057 14.0909C48.9057 14.0909 39.8263 19.3299 34.6824 20.9303C34.0953 21.113 33.5694 21.4522 33.1611 21.9112C32.7529 22.3703 32.4779 22.9318 32.3657 23.5353C32.2535 24.1388 32.3084 24.7614 32.5244 25.3361C32.7405 25.9108 33.1095 26.4158 33.5918 26.7966C33.6283 26.8252 33.6654 26.8539 33.7032 26.8826C37.4867 29.751 45.2054 36.5955 42.156 43.2165C39.1066 49.8376 42.6626 51.0448 42.6626 51.0448L36.1053 48.5547L33.104 47.2718L33.4073 49.4868L18.756 49.7932C18.756 49.7932 14.7968 49.7692 21.8294 39.2202C21.8294 39.2202 23.5263 35.2647 22.1332 32.2429C21.0152 29.9544 20.4585 27.4333 20.5092 24.8878C20.9522 14.2523 25.4406 -7.38436 55.7109 1.88056Z" fill="#FF9C51"/>
<path d="M41.0345 23.3227C40.657 20.5653 42.3664 18.055 44.8526 17.7158C47.3388 17.3767 49.6603 19.3371 50.0379 22.0945C50.4154 24.8519 48.706 27.3621 46.2198 27.7013C43.7336 28.0404 41.4121 26.0801 41.0345 23.3227Z" fill="#2F2E41"/>
<path d="M52.5387 21.7533C52.1612 18.9959 53.8706 16.4857 56.3568 16.1465C58.843 15.8074 61.1645 17.7677 61.542 20.5251C61.9195 23.2825 60.2101 25.7928 57.7239 26.1319C55.2378 26.4711 52.9162 24.5107 52.5387 21.7533Z" fill="#2F2E41"/>
<path d="M31.237 21.3535L41.5143 21.9879L41.4191 23.5244L31.1418 22.89L31.237 21.3535Z" fill="#2F2E41"/>
<path d="M53.9332 20.7869L54.1421 22.3123L49.1397 22.9947L48.9309 21.4694L53.9332 20.7869Z" fill="#2F2E41"/>
</g>
<defs>
<clipPath id="clip0_171_509">
<rect width="89.6424" height="144" fill="white" transform="matrix(-1 0 0 1 89.6423 0)"/>
</clipPath>
</defs>
</svg>
