<svg width="100" height="101" viewBox="0 0 100 101" fill="none" xmlns="http://www.w3.org/2000/svg">
<path d="M59.7917 75.2917C58.625 79 55.5833 82.0417 51.875 83.2083C45.5833 85.2083 39.625 82.25 36.9167 77.2917C35.4583 74.5833 37.625 71.3333 40.7083 71.3333H40.75C42.1667 71.3333 43.5833 72 44.25 73.25C44.9583 74.5833 46.3333 75.5 47.9583 75.5C50.25 75.5 52.125 73.625 52.125 71.3333C52.125 69.0417 50.25 67.1667 47.9583 67.1667H12.5C10.2083 67.1667 8.33334 65.2917 8.33334 63C8.33334 60.7083 10.2083 58.8333 12.5 58.8333H47.9167C56.0833 58.8333 62.5 66.75 59.7917 75.2917ZM78.7917 24.125C78.166 21.5158 76.8307 19.1306 74.9334 17.2333C73.0361 15.336 70.6509 14.0007 68.0417 13.375C60.7083 11.7083 54 15.5833 51.2917 21.625C50 24.4167 52 27.5833 55.0417 27.5833C56.6667 27.5833 58.1667 26.6667 58.7917 25.2083C59.2633 24.0604 60.0659 23.0789 61.0973 22.3888C62.1288 21.6987 63.3423 21.3312 64.5833 21.3333C68.0417 21.3333 70.8333 24.125 70.8333 27.5833C70.8333 31.0417 68.0417 33.8333 64.5833 33.8333H12.5C10.2083 33.8333 8.33334 35.7083 8.33334 38C8.33334 40.2917 10.2083 42.1667 12.5 42.1667H64.5833C73.75 42.1667 80.9583 33.6667 78.7917 24.125ZM76.6667 46.3333H12.5C10.2083 46.3333 8.33334 48.2083 8.33334 50.5C8.33334 52.7917 10.2083 54.6667 12.5 54.6667H77.0833C80.5417 54.6667 83.3333 57.4583 83.3333 60.9167C83.3354 62.1577 82.968 63.3712 82.2779 64.4027C81.5878 65.4341 80.6063 66.2367 79.4583 66.7083C77.9583 67.3333 77.0833 68.8333 77.0833 70.4583C77.0833 73.5 80.25 75.5 83.0417 74.25C86.0931 72.8841 88.5845 70.514 90.1008 67.5345C91.6171 64.5549 92.0668 61.1458 91.375 57.875C89.9583 51.0417 83.625 46.3333 76.6667 46.3333Z" fill="#203C4D"/>
</svg>
