<svg width="100" height="101" viewBox="0 0 100 101" fill="none" xmlns="http://www.w3.org/2000/svg">
<path d="M52.75 11.25C51.1667 9.875 48.7917 9.875 47.2083 11.25C26.875 29.1667 16.6667 44.75 16.6667 58C16.6667 78.75 32.5 92.1667 50 92.1667C67.5 92.1667 83.3333 78.75 83.3333 58C83.3333 44.75 73.125 29.1667 52.75 11.25ZM32.625 58.8333C34.1667 58.8333 35.4167 59.9167 35.7083 61.4167C37.4167 70.6667 45.2083 73.8333 50.875 73.375C52.6667 73.2917 54.1667 74.7083 54.1667 76.5C54.1667 78.1667 52.8333 79.5417 51.1667 79.625C42.2917 80.1667 31.9167 75.0833 29.5417 62.4583C29.4693 62.0116 29.4947 61.5545 29.6164 61.1186C29.738 60.6827 29.9528 60.2784 30.246 59.9336C30.5392 59.5889 30.9038 59.312 31.3146 59.122C31.7253 58.932 32.1724 58.8335 32.625 58.8333Z" fill="#437CA1"/>
</svg>
