<svg width="100" height="101" viewBox="0 0 100 101" fill="none" xmlns="http://www.w3.org/2000/svg">
<path d="M66.6667 17.1667H62.5V13C62.5 10.7083 60.625 8.83334 58.3333 8.83334C56.0417 8.83334 54.1667 10.7083 54.1667 13V17.1667H45.8333V13C45.8333 10.7083 43.9583 8.83334 41.6667 8.83334C39.375 8.83334 37.5 10.7083 37.5 13V17.1667H33.3333C24.125 17.1667 16.6667 24.625 16.6667 33.8333V75.5C16.6667 84.7083 24.125 92.1667 33.3333 92.1667H66.6667C75.875 92.1667 83.3333 84.7083 83.3333 75.5V33.8333C83.3333 24.625 75.875 17.1667 66.6667 17.1667ZM50 75.5C44.25 75.5 39.5833 70.9167 39.5833 65.25C39.5833 61 41.1667 59.625 48.4167 51.2917C49.25 50.3333 50.75 50.3333 51.5417 51.2917C58.75 59.5833 60.375 61.0417 60.375 65.25C60.4167 70.9167 55.75 75.5 50 75.5ZM62.5 42.1667H37.5C35.2083 42.1667 33.3333 40.2917 33.3333 38C33.3333 35.7083 35.2083 33.8333 37.5 33.8333H62.5C64.7917 33.8333 66.6667 35.7083 66.6667 38C66.6667 40.2917 64.7917 42.1667 62.5 42.1667Z" fill="#827F73"/>
</svg>
