<svg width="100" height="101" viewBox="0 0 100 101" fill="none" xmlns="http://www.w3.org/2000/svg">
<path fill-rule="evenodd" clip-rule="evenodd" d="M41.1612 12.4945C43.5054 10.1503 46.6848 8.83334 50 8.83334C53.3152 8.83334 56.4946 10.1503 58.8388 12.4945C61.183 14.8387 62.5 18.0181 62.5 21.3333V54.5171C65.4756 56.7487 67.8125 59.7468 69.2475 63.2112C71.0025 67.4482 71.3104 72.146 70.1235 76.5758C68.9365 81.0057 66.3209 84.9201 62.6825 87.712C59.0441 90.5038 54.5861 92.0171 50 92.0171C45.4139 92.0171 40.9559 90.5038 37.3175 87.712C33.6791 84.9201 31.0635 81.0057 29.8765 76.5758C28.6896 72.146 28.9975 67.4482 30.7525 63.2112C32.1875 59.7468 34.5244 56.7487 37.5 54.5171V38.0082C37.5 38.0055 37.5 38.0028 37.5 38C37.5 37.9973 37.5 37.9945 37.5 37.9918V21.3333C37.5 18.0181 38.817 14.8387 41.1612 12.4945ZM45.8333 42.1667V56.75C45.8333 58.2386 45.0392 59.6141 43.75 60.3585C41.367 61.7343 39.5045 63.858 38.4515 66.4002C37.3985 68.9424 37.2137 71.7611 37.9259 74.419C38.6381 77.0769 40.2074 79.4256 42.3905 81.1007C44.5735 82.7758 47.2483 83.6838 50 83.6838C52.7517 83.6838 55.4265 82.7758 57.6095 81.1007C59.7926 79.4256 61.3619 77.0769 62.0741 74.419C62.7863 71.7611 62.6015 68.9424 61.5485 66.4002C60.4955 63.858 58.633 61.7343 56.25 60.3585C54.9608 59.6141 54.1667 58.2386 54.1667 56.75V42.1667H45.8333ZM54.1667 33.8333H45.8333V21.3333C45.8333 20.2283 46.2723 19.1685 47.0537 18.3871C47.8351 17.6057 48.8949 17.1667 50 17.1667C51.1051 17.1667 52.1649 17.6057 52.9463 18.3871C53.7277 19.1685 54.1667 20.2283 54.1667 21.3333V33.8333Z" fill="#D5A234"/>
</svg>
